<svg viewBox="0 0 16 16" width="16" height="16">
  <g transform="matrix(0.05593883882109125,0,0,-0.05312695831524994,-0.5452811941690762,15.346495623974821) " id="g3012">
   <g id="g3014">
    <path fill="#828282" fill-rule="nonzero" id="path3016" d="m28.504135,289.629791l-19.565001,-52.175018l0,-208.675003l71.704992,0l0,-39.149994l39.14801,0l39.108986,39.149994l58.679993,0l78.256073,78.227997l0,182.622025l-267.333054,0zm26.066002,-26.070984l215.189995,0l0,-143.481033l-45.656006,-45.658997l-71.716003,0l-39.097984,-39.096008l0,39.096008l-58.720001,0l0,189.14003z"/>
   </g>
   <path fill="#828282" fill-rule="nonzero" id="path3018" d="m126.303932,133.10408l26.083992,0l0,78.251999l-26.083992,0l0,-78.251999zm71.720985,0l26.07901,0l0,78.251999l-26.07901,0l0,-78.251999z"/>
  </g>
</svg>
