<svg viewBox="0 0 16 16" width="16" height="16"><path fill="#828282" d="m15.946823,7.813001c0,-1.138095 -0.7812,-2.062541 -1.741864,-2.062541c-0.457459,0 -0.869173,0.205432 -1.182356,0.54645c-1.140129,-0.936772 -2.677897,-1.553069 -4.395128,-1.668111l0.770643,-3.00753l2.361194,0.554667c0.080935,0.932663 0.746011,1.659894 1.558881,1.659894c0.003519,0 0.003519,0 0.007038,0c0.003519,0 0.003519,0 0.007038,0c0.865654,0 1.565918,-0.829947 1.565918,-1.853s-0.703784,-1.853 -1.569437,-1.853c-0.003519,0 -0.003519,0 -0.007038,0c0,0 -0.003519,0 -0.003519,0c-0.605254,0 -1.126054,0.402647 -1.389973,0.998401l-3.156469,-0.739557l-1.083827,4.231907l-0.087973,0.004109c-1.770016,0.09039 -3.360567,0.714905 -4.528847,1.67222c-0.309665,-0.341018 -0.724897,-0.54645 -1.182356,-0.54645c-0.960665,0 -1.741864,0.924446 -1.741864,2.062541c0,0.805295 0.387081,1.499656 0.953627,1.840674c-0.028151,0.201324 -0.042227,0.402647 -0.042227,0.60808c0.003519,3.114355 3.131837,5.645282 6.988571,5.645282s6.985052,-2.530927 6.985052,-5.64939c0,-0.205432 -0.014076,-0.406756 -0.038708,-0.60808c0.566546,-0.341018 0.953627,-1.035379 0.953627,-1.836565zm-14.592953,0.825838c-0.232249,-0.184889 -0.383562,-0.497146 -0.383562,-0.854599c0,-0.566993 0.3906,-1.031271 0.869173,-1.031271c0.197059,0 0.380043,0.078064 0.527838,0.209541c-0.475054,0.488929 -0.826946,1.055922 -1.013448,1.676328zm11.383699,-6.656009c0,-0.377996 0.2604,-0.690253 0.580621,-0.690253s0.580621,0.308149 0.580621,0.690253c0,0.377996 -0.2604,0.690253 -0.580621,0.690253s-0.580621,-0.308149 -0.580621,-0.690253zm-8.121663,7.366805c0,-0.723122 0.499686,-1.30655 1.119016,-1.30655s1.119016,0.583428 1.119016,1.30655c0,0.723122 -0.499686,1.30655 -1.119016,1.30655s-1.119016,-0.583428 -1.119016,-1.30655zm3.430945,4.585251c-1.675005,-0.008217 -2.674378,-1.170965 -2.716605,-1.220268l0.443384,-0.509472c0.007038,0.008217 0.833984,0.994293 2.273221,1.00251c1.418124,-0.008217 2.259145,-0.994293 2.269702,-1.00251l0.443384,0.509472c-0.042227,0.049304 -1.038081,1.212051 -2.713086,1.220268zm2.333043,-3.278701c-0.61933,0 -1.119016,-0.583428 -1.119016,-1.30655c0,-0.723122 0.499686,-1.30655 1.119016,-1.30655s1.119016,0.583428 1.119016,1.30655c0,0.723122 -0.503205,1.30655 -1.119016,1.30655zm4.366977,-2.000911c-0.190022,-0.628623 -0.548951,-1.207942 -1.031043,-1.70098c0.147795,-0.135585 0.334297,-0.21365 0.534876,-0.21365c0.48913,0 0.883248,0.468386 0.883248,1.047705c0.003519,0.361561 -0.151313,0.677927 -0.387081,0.866925z"/></svg>
