<svg viewBox="0 0 16 16" width="16" height="16"><path fill="#828282" d="m4.772781,13.003789c0.41796,0 0.828191,-0.202863 1.077421,-0.577827c0.396249,-0.596143 0.235619,-1.401543 -0.35874,-1.798961l-1.0174,-0.680247c0.174119,-0.047565 0.357139,-0.073448 0.546286,-0.073448c1.14548,0 2.074034,0.931294 2.074034,2.080184c0,1.14889 -0.928585,2.080184 -2.074065,2.080184c-1.114869,0 -2.02396,-0.882307 -2.071755,-1.988697l1.10794,0.740785c0.220529,0.147453 0.469728,0.218029 0.716279,0.218029zm8.459879,-12.910765c1.445492,0 2.627804,1.186232 2.627804,2.635988l0,10.542039c0,1.450683 -1.182312,2.635927 -2.627804,2.635927l-10.511401,0c-1.445492,0 -2.628235,-1.185274 -2.628235,-2.635896l0,-3.135425l1.868288,1.249179c-0.179416,0.975616 0.106831,2.020449 0.859172,2.775009c1.214955,1.218539 3.184746,1.218539 4.399732,0c0.746305,-0.748476 1.033968,-1.782622 0.863452,-2.751474l3.834968,-3.443643l-0.000031,-0.000031c0.712122,-0.102513 1.398375,-0.428459 1.946201,-0.977902c1.346946,-1.350919 1.346946,-3.541245 0,-4.892195c-1.347008,-1.35095 -3.53086,-1.35095 -4.877836,0c-0.547826,0.549442 -0.872814,1.23772 -0.975025,1.951911l0,0l-3.151856,4.790979c-0.490392,0.025203 -0.975888,0.166232 -1.412387,0.423023l-3.354677,-2.243049l0,-4.288454c0,-1.449757 1.182712,-2.635988 2.628204,-2.635988l10.511432,0zm0.656874,4.447675c0,-1.364664 -1.103013,-2.47093 -2.463663,-2.47093s-2.463663,1.106266 -2.463663,2.47093s1.103013,2.47093 2.463663,2.47093s2.463663,-1.106266 2.463663,-2.47093zm-3.94186,0c0,-0.818805 0.661801,-1.482558 1.478198,-1.482558s1.478198,0.663754 1.478198,1.482558s-0.661801,1.482558 -1.478198,1.482558s-1.478198,-0.663754 -1.478198,-1.482558z"/></svg>
