<svg viewBox="0 0 16 16" width="16" height="16"><path fill="#828282" d="m2.923307,0c-1.619383,0 -2.923307,1.300864 -2.923307,2.916445l0,10.139419c0,1.615582 1.303924,2.916447 2.923307,2.916447l5.508407,0l0,-6.244178l-1.655022,0l0,-2.2481l1.655022,0l0,-1.920669c0,-1.508982 0.977866,-2.894483 3.230489,-2.894483c0.91205,0 1.586482,0.087352 1.586482,0.087352l-0.053041,2.099367s-0.687833,-0.006485 -1.438392,-0.006485c-0.812325,0 -0.942581,0.3734 -0.942581,0.993285l0,1.641649l2.445508,0l-0.106561,2.2481l-2.338947,0l0,6.244177l2.271898,0c1.619382,0 2.923306,-1.300863 2.923306,-2.916445l0,-10.13942c0,-1.615582 -1.303925,-2.916445 -2.923306,-2.916445l-10.163278,0l0.000015,-0.000016z"/></svg>
